# xmcd
#
# Track frame offsets:
#	150
#	18196
#	38714
#	56822
#	67950
#	82275
#	98481
#	114842
#	137276
#	148398
#	163838
#	176882
#	188558
#	205565
#	218546
#	232567
#	248767
#	260000
#	268510
#	286959
#
# Disc length: 4109 seconds
#
# Revision: 1
# Processed by: cddbd v1.5.2PL0 Copyright (c) Steve Scherf et al.
# Submitted via: audiograbber 1.83.01
#
DISCID=11100b14
DTITLE=Sílvio Brito - OS GRANDES SUCESSOS
DYEAR=1900
DGENRE=POP
TTITLE0=Pare o mundo que eu quero descer
TTITLE1=Nos becos da vida
TTITLE2=Felicidade começa com fé
TTITLE3=Espelho mágico
TTITLE4=Filho  da corrente
TTITLE5=Terra dos meus sonhos
TTITLE6=Tá todo mundo louco
TTITLE7=Amar como Jesus amou
TTITLE8=Quero todo mundo entendendo o que eu digo
TTITLE9=Cidadão
TTITLE10=Satisfação
TTITLE11=E por isso estou aqui
TTITLE12=O homem
TTITLE13=Utopia
TTITLE14=Eu quero é botar meu bloco na rua
TTITLE15=Oração de um jovem triste
TTITLE16=Intuição
TTITLE17=Canção do amor talvez (Perhaps love)
TTITLE18=Pelos caminhos de São Thomé das Letras
TTITLE19=O velho, o moço e o menino
EXTD=
EXTT0=
EXTT1=
EXTT2=
EXTT3=
EXTT4=
EXTT5=
EXTT6=
EXTT7=
EXTT8=
EXTT9=
EXTT10=
EXTT11=
EXTT12=
EXTT13=
EXTT14=
EXTT15=
EXTT16=
EXTT17=
EXTT18=
EXTT19=
PLAYORDER=
